HIERARCHY
ROOT Hips
{
	OFFSET 0.000000 0.000000 0.000000
	CHANNELS 6 Xposition Yposition Zposition Zrotation Yrotation Xrotation 
	JOINT LHipJoint
	{
		OFFSET 0.000000 0.000000 0.000000
		CHANNELS 3 Zrotation Yrotation Xrotation
		JOINT LeftUpLeg
		{
			OFFSET 1.363060 -1.794630 0.839290
			CHANNELS 3 Zrotation Yrotation Xrotation
			JOINT LeftLeg
			{
				OFFSET 2.448110 -6.726130 0.000000
				CHANNELS 3 Zrotation Yrotation Xrotation
				JOINT LeftFoot
				{
					OFFSET 2.562200 -7.039590 0.000000
					CHANNELS 3 Zrotation Yrotation Xrotation
					JOINT LeftToeBase
					{
						OFFSET 0.157640 -0.433110 2.322550
						CHANNELS 3 Zrotation Yrotation Xrotation
						End Site
						{
							OFFSET 0.000000 0.000000 0.000000
						}
					}
				}
			}
		}
	}
	JOINT RHipJoint
	{
		OFFSET 0.000000 0.000000 0.000000
		CHANNELS 3 Zrotation Yrotation Xrotation
		JOINT RightUpLeg
		{
			OFFSET -1.305520 -1.794630 0.839290
			CHANNELS 3 Zrotation Yrotation Xrotation
			JOINT RightLeg
			{
				OFFSET -2.542530 -6.985550 0.000000
				CHANNELS 3 Zrotation Yrotation Xrotation
				JOINT RightFoot
				{
					OFFSET -2.568260 -7.056230 0.000000
					CHANNELS 3 Zrotation Yrotation Xrotation
					JOINT RightToeBase
					{
						OFFSET -0.164730 -0.452590 2.363150
						CHANNELS 3 Zrotation Yrotation Xrotation
						End Site
						{
							OFFSET 0.000000 0.000000 0.000000
						}
					}
				}
			}
		}
	}
}
MOTION
Frames: 16
Frame Time: 0.008333
2.126399 16.506414 0.928514 146.609167 -86.842926 -141.705517 -9.234734 0.502892 2.799598 -15.246567 -0.483667 -37.282106 -1.499642 1.059086 34.219008 1.207707 6.473738 -5.184773 0.413699 -0.000000 -15.028100 11.504653 -5.442568 -0.084061 -0.445730 -9.428705 5.054793 0.506049 -3.351045 38.051609 0.558265 16.709090 15.389627 6.140200 -0.000000 -83.393901
1.980746 16.457308 0.939374 144.462768 -86.594319 -139.749085 -9.118734 0.553628 2.611091 -15.814045 -0.189389 -37.375072 -1.479725 1.172895 36.131786 1.249299 6.470098 -6.444577 0.227600 0.000000 -14.756500 11.809840 -5.381972 -0.133343 -1.370717 -9.683488 3.556617 0.237864 -3.524804 41.529050 0.408877 17.352399 17.095730 6.925000 0.000000 -82.446600
1.840206 16.404690 0.950206 142.714735 -86.305616 -138.181948 -9.010083 0.607864 2.414201 -16.395438 0.146549 -37.439431 -1.474456 1.282637 37.966591 1.296298 6.459898 -7.845480 0.020400 -0.000000 -14.562901 12.092381 -5.293371 -0.184581 -2.234929 -9.858204 1.990816 -0.025370 -3.692912 45.079104 0.248037 17.649648 18.669945 7.567401 -0.000000 -80.664100
1.704229 16.349545 0.960748 141.254954 -85.989825 -136.895564 -8.905343 0.666452 2.214905 -16.986641 0.507113 -37.469215 -1.480337 1.387255 39.704263 1.349437 6.456703 -9.328830 -0.200000 0.000000 -14.460500 12.357112 -5.181795 -0.238504 -3.040402 -9.974612 0.369718 -0.283239 -3.859619 48.660287 0.081249 17.520648 20.038600 7.978900 -0.000000 -78.240000
1.572149 16.293101 0.970862 139.992166 -85.658893 -135.799390 -8.801931 0.730140 2.019314 -17.581151 0.873147 -37.458921 -1.493533 1.485907 41.328849 1.409065 6.472531 -10.836877 -0.426900 -0.000000 -14.449100 12.607935 -5.050985 -0.295639 -3.787908 -10.051649 -1.292653 -0.537746 -4.028206 52.230617 -0.088038 16.902197 21.131145 8.081900 -0.000000 -75.453300
1.443333 16.236738 0.980498 138.866987 -85.324496 -134.835585 -8.699633 0.798738 1.832762 -18.168422 1.226368 -37.403271 -1.510171 1.578044 42.829108 1.474822 6.516280 -12.317719 -0.654900 0.000001 -14.515400 12.846239 -4.903546 -0.356243 -4.473370 -10.102728 -2.980880 -0.791942 -4.200485 55.749075 -0.258696 15.761030 21.887607 7.828400 0.000001 -72.605800
1.317078 16.181904 0.989559 137.801632 -84.996844 -133.924666 -8.595722 0.872508 1.660702 -18.742898 1.544233 -37.296913 -1.527162 1.662924 44.195147 1.546385 6.596712 -13.728473 -0.880300 0.000000 -14.634300 13.075886 -4.740515 -0.419954 -5.098780 -10.140218 -4.684989 -1.048765 -4.376799 59.180231 -0.431328 14.106727 22.258644 7.212900 0.000000 -69.930500
1.192967 16.129976 0.998090 136.756060 -84.685347 -133.027636 -8.490378 0.950442 1.506668 -19.295933 1.809718 -37.135604 -1.542092 1.740234 45.421370 1.622676 6.717664 -15.037417 -1.100201 0.000000 -14.773900 13.297202 -4.562443 -0.486501 -5.660299 -10.169605 -6.394061 -1.309786 -4.556520 62.491617 -0.606834 11.989985 22.205187 6.273500 -0.000000 -67.533200
1.070564 16.082180 1.006080 135.680324 -84.396413 -132.092619 -8.381783 1.032074 1.373370 -19.824075 2.006254 -36.915234 -1.553897 1.809653 46.502718 1.702750 6.880855 -16.225391 -1.313500 -0.000000 -14.901600 13.512029 -4.369098 -0.555435 -6.159770 -10.195610 -8.101888 -1.574968 -4.738336 65.654779 -0.785422 9.505174 21.701728 5.090600 0.000000 -65.390300
0.949682 16.039592 1.013782 134.584405 -84.137209 -131.129197 -8.273703 1.115484 1.260854 -20.316227 2.130436 -36.632902 -1.562295 1.871338 47.439193 1.784557 7.079371 -17.285984 -1.518800 -0.000000 -14.989999 13.716232 -4.162059 -0.626053 -6.588261 -10.215127 -9.798515 -1.842217 -4.920113 68.641211 -0.965939 6.775805 20.743512 3.772599 -0.000000 -63.381200
0.830188 16.003071 1.021404 133.470833 -83.912632 -130.139520 -8.168928 1.198938 1.167485 -20.764807 2.183984 -36.287350 -1.568197 1.925537 48.231506 1.866087 7.303188 -18.222959 -1.715200 0.000000 -15.020400 13.906487 -3.942970 -0.697531 -6.940442 -10.224081 -11.477465 -2.107682 -5.099147 71.424580 -1.145570 3.948680 19.352925 2.443000 0.000001 -61.347700
0.711945 15.973198 1.029162 132.342332 -83.724849 -129.123954 -8.069402 1.281411 1.090585 -21.165989 2.173379 -35.876979 -1.573394 1.972417 48.879327 1.945582 7.540657 -19.047119 -1.901800 -0.000001 -14.984100 14.080058 -3.714076 -0.768469 -7.213823 -10.217356 -13.133322 -2.365881 -5.272155 73.979734 -1.319775 1.176553 17.582747 1.219300 0.000000 -59.136600
0.594951 15.950376 1.037360 131.228971 -83.576649 -128.112199 -7.979950 1.361098 1.025849 -21.511733 2.115320 -35.403197 -1.579950 2.012223 49.385044 2.020694 7.775222 -19.774452 -2.077300 -0.000001 -14.882900 14.231541 -3.479151 -0.836880 -7.401382 -10.186336 -14.759555 -2.609973 -5.435176 76.283162 -1.482442 -1.400931 15.512439 0.193501 0.000000 -56.636100
0.479196 15.934785 1.046284 130.156948 -83.469085 -127.130108 -7.904500 1.436762 0.968596 -21.796634 2.029665 -34.867425 -1.590119 2.045021 49.750853 2.089349 7.990575 -20.423118 -2.240400 -0.000000 -14.727100 14.356512 -3.242211 -0.900391 -7.498730 -10.123145 -16.350653 -2.832469 -5.584057 78.314472 -1.626345 -3.668672 13.240339 -0.579300 0.000000 -53.791900
0.364601 15.926464 1.056161 129.151890 -83.402334 -126.203853 -7.846449 1.507486 0.914317 -22.016610 1.938261 -34.271762 -1.605975 2.070611 49.977370 2.149571 8.171456 -21.008408 -2.389401 -0.000000 -14.534600 14.451215 -3.007434 -0.956479 -7.503801 -10.021168 -17.900550 -3.025918 -5.714790 80.056692 -1.743807 -5.543999 10.871512 -1.084800 0.000000 -50.608199
0.250975 15.925301 1.067112 128.236479 -83.374963 -125.356475 -7.808035 1.572906 0.859439 -22.169863 1.861585 -33.618405 -1.629192 2.088584 50.065028 2.199817 8.305552 -21.542819 -2.522400 -0.000001 -14.327800 14.513144 -2.778653 -1.002484 -7.417392 -9.876233 -19.403761 -3.183592 -5.823843 81.496426 -1.827792 -6.979392 8.506730 -1.343901 -0.000000 -47.144600
